<?xml version="1.0" encoding="UTF-8"?>
<svg version="1.1" xmlns="http://www.w3.org/2000/svg" width="225" height="148">
<path d="M0 0 C17.62127006 -2.04634104 35.91866297 5.87665586 51.6628418 12.83544922 C58.7193873 15.86617825 62.78769668 16.55354751 70.15625 13.8359375 C71.2596875 13.35382812 72.363125 12.87171875 73.5 12.375 C80.1854351 9.5613613 86.99592722 7.34508885 93.9375 5.25 C94.90816406 4.95657715 95.87882813 4.6631543 96.87890625 4.36083984 C99.58105409 3.55549929 102.28770488 2.77041442 105 2 C105.73943848 1.78811035 106.47887695 1.5762207 107.24072266 1.35791016 C111.41317632 0.22884639 115.18463593 -0.22307646 119.5 -0.125 C121.06234375 -0.09792969 121.06234375 -0.09792969 122.65625 -0.0703125 C123.81640625 -0.03550781 123.81640625 -0.03550781 125 0 C124.67 0.99 124.34 1.98 124 3 C121.88061523 4.00805664 121.88061523 4.00805664 119.05859375 4.91015625 C118.0104248 5.25570557 116.96225586 5.60125488 115.88232422 5.95727539 C114.74553223 6.32199951 113.60874023 6.68672363 112.4375 7.0625 C99.33857532 11.41144534 86.66110052 16.51881727 74 22 C74 22.66 74 23.32 74 24 C75.55898938 25.08857866 77.17600644 26.09433668 78.8125 27.0625 C85.95621548 31.48261664 92.42093811 36.60433724 98.515625 42.38671875 C99.68351562 43.49466797 99.68351562 43.49466797 100.875 44.625 C101.55304688 45.29789063 102.23109375 45.97078125 102.9296875 46.6640625 C104.91695482 48.26057348 104.91695482 48.26057348 107.29833984 47.7109375 C110.07809157 46.97945033 112.63616203 46.04751387 115.296875 44.9609375 C126.60917192 40.42734284 137.876106 36.20851891 149.625 32.9375 C150.64819336 32.65116699 151.67138672 32.36483398 152.72558594 32.06982422 C158.15285894 30.60613793 163.40373649 29.53835789 169 29 C169 30.32 169 31.64 169 33 C164.05415547 35.02461857 159.10247218 36.99635757 154.0546875 38.75390625 C139.95499465 43.66427401 126.47585621 49.58326362 113 56 C113.54853638 56.7259436 113.54853638 56.7259436 114.1081543 57.46655273 C123.45215556 69.87298661 132.37100136 82.45735937 140 96 C140.41475586 96.73379883 140.82951172 97.46759766 141.25683594 98.22363281 C142.54153953 100.5156059 143.80584823 102.81754232 145.0625 105.125 C145.45719482 105.83591797 145.85188965 106.54683594 146.25854492 107.27929688 C148.23816892 110.9891504 149.53045751 113.67214028 149 118 C144.41611283 116.5206546 142.77729164 112.79938936 140.5 108.875 C135.22728508 100.12512727 129.25746563 92.06332507 123 84 C122.26982666 83.05133057 122.26982666 83.05133057 121.52490234 82.08349609 C115.93272182 74.81987286 110.22348965 67.74062776 104 61 C93.78978461 66.3914677 84.12646288 72.25446574 74.9375 79.25 C74.09662842 79.88663574 74.09662842 79.88663574 73.23876953 80.53613281 C70.6250445 82.56178982 68.85384426 84.2192336 67 87 C67.60585937 87.69222656 68.21171875 88.38445312 68.8359375 89.09765625 C104 130.15846154 104 130.15846154 104 148 C100.99904867 147.69620615 100.10804375 147.12802627 98.12817383 144.78198242 C97.49419678 143.81623291 96.86021973 142.8504834 96.20703125 141.85546875 C95.49353516 140.78490234 94.78003906 139.71433594 94.04492188 138.61132812 C93.30015499 137.47046067 92.55601601 136.32918306 91.8125 135.1875 C84.74037432 124.46811453 77.45030033 114.02085115 69.25 104.125 C68.51394531 103.23425781 67.77789062 102.34351562 67.01953125 101.42578125 C66.35308594 100.62527344 65.68664062 99.82476562 65 99 C64.17048828 98.00033203 64.17048828 98.00033203 63.32421875 96.98046875 C62.21908577 95.65119612 61.11018336 94.32505756 60 93 C54.9266204 96.84907446 51.27960946 101.28738041 47.36132812 106.27197266 C46.42271492 107.4634189 45.47834102 108.65034179 44.52929688 109.83349609 C35.01154228 121.71264049 25.82747509 134.34504982 19 148 C17.68 148 16.36 148 15 148 C15.97751157 141.78782282 18.98787495 136.70738866 21.875 131.1875 C22.45926758 130.06907715 23.04353516 128.9506543 23.64550781 127.79833984 C30.28293786 115.30318871 38.00314277 104.03304422 47.125 93.234375 C48.82798845 91.20498043 50.43287671 89.13520548 52 87 C48.3527201 78.44512359 38.53576495 72.7863925 31.1875 67.5625 C30.45845459 67.04236328 29.72940918 66.52222656 28.97827148 65.98632812 C25.43149842 63.50950167 22.15006494 61.36161266 18 60 C4.16345741 74.44877899 -7.11333686 90.78403808 -17.359375 107.92578125 C-17.90513184 108.83420776 -17.90513184 108.83420776 -18.46191406 109.76098633 C-19.43245811 111.38685304 -20.38865643 113.0212593 -21.34375 114.65625 C-23 117 -23 117 -26 118 C-25.51409926 111.83976692 -23.49623352 107.21362991 -20.6875 101.75 C-20.24599609 100.88173584 -19.80449219 100.01347168 -19.34960938 99.11889648 C-11.9309897 84.81063472 -3.13274602 71.51908113 7 59 C7.7528125 58.05898438 8.505625 57.11796875 9.28125 56.1484375 C9.8484375 55.43945312 10.415625 54.73046875 11 54 C10.23171875 53.76410156 9.4634375 53.52820312 8.671875 53.28515625 C4.7838288 51.92434008 1.04047586 50.34600605 -2.74414062 48.72412109 C-16.60473109 42.79126601 -30.69876785 37.75895432 -45 33 C-45 31.68 -45 30.36 -45 29 C-38.8002088 29.58546736 -32.91028124 30.53888129 -26.875 32.0625 C-26.02969727 32.27511475 -25.18439453 32.48772949 -24.31347656 32.70678711 C-17.3538451 34.52275652 -10.54614903 36.71217883 -3.75 39.0625 C-2.32276611 39.55472046 -2.32276611 39.55472046 -0.86669922 40.05688477 C3.39944378 41.5704703 7.4319736 43.16351518 11.421875 45.30859375 C14.65761238 47.23024283 14.65761238 47.23024283 17.05444336 46.74023438 C20.16339031 45.55735984 22.3786222 43.26194384 24.8125 41.0625 C30.79024851 35.81737383 37.10972314 31.39917492 43.78515625 27.09375 C46.27369279 25.47302633 48.65837413 23.82191339 51 22 C41.9480524 17.42251105 32.73318947 13.67403564 23.1875 10.25 C22.13892822 9.87367432 21.09035645 9.49734863 20.01000977 9.10961914 C14.33885885 7.10311087 8.68840626 5.28409341 2.85668945 3.79980469 C1.93762817 3.40390137 1.93762817 3.40390137 1 3 C0.505 1.515 0.505 1.515 0 0 Z M53.1875 31.375 C52.42719482 31.82254639 51.66688965 32.27009277 50.88354492 32.73120117 C41.57402432 38.31847504 33.31280813 45.04187171 25 52 C28.02898796 55.24690077 31.23906234 57.61668523 34.9375 60.0625 C39.87526729 63.39469651 44.52628554 66.95135229 49.0625 70.8125 C49.5980249 71.26826416 50.1335498 71.72402832 50.68530273 72.19360352 C53.57614682 74.68688194 56.33932658 77.26276044 59 80 C63.20079218 78.25922508 66.36116705 75.31807334 69.8125 72.4375 C77.11636131 66.45512634 84.80521228 61.6502952 93 57 C94.6696058 56.00491495 96.33749934 55.00691078 98 54 C87.70157608 43.35829528 76.25250815 33.77350417 63 27 C59.3554821 27 56.26656084 29.56015392 53.1875 31.375 Z " fill="#4B4849" transform="translate(50,0)"/>
<path d="M0 0 C3.45403304 1.68009886 6.55369058 3.64557575 9.64453125 5.90625 C10.24410645 6.33856934 10.84368164 6.77088867 11.46142578 7.21630859 C17.73909708 11.83822137 23.41205772 17.06667843 29.01953125 22.46875 C28.8828125 24.26953125 28.8828125 24.26953125 28.01953125 26.46875 C25.5 28.07421875 25.5 28.07421875 22.20703125 29.65625 C12.9144206 34.40467193 4.91963815 40.66588017 -2.98046875 47.46875 C-5.87094542 46.17791747 -7.66245732 44.90713954 -9.73046875 42.53125 C-13.47736039 38.64497727 -17.73028946 35.68985871 -22.16796875 32.65625 C-22.86954102 32.17615479 -23.57111328 31.69605957 -24.29394531 31.20141602 C-27.45268422 29.07104225 -30.54190133 27.12337405 -33.98046875 25.46875 C-34.45703125 23.36328125 -34.45703125 23.36328125 -33.98046875 20.46875 C-31.72634602 17.99339823 -29.061818 16.11136447 -26.35546875 14.15625 C-25.58871826 13.590271 -24.82196777 13.02429199 -24.03198242 12.44116211 C-5.54624291 -0.98858327 -5.54624291 -0.98858327 0 0 Z " fill="#98C542" transform="translate(113.98046875,29.53125)"/>
<path d="M0 0 C0 0.99 0 1.98 0 3 C-0.66193359 3.22026855 -1.32386719 3.44053711 -2.00585938 3.66748047 C-18.30692518 9.12267197 -34.22513232 15.17082017 -50 22 C-50 22.66 -50 23.32 -50 24 C-48.44101062 25.08857866 -46.82399356 26.09433668 -45.1875 27.0625 C-38.04378452 31.48261664 -31.57906189 36.60433724 -25.484375 42.38671875 C-24.70578125 43.12535156 -23.9271875 43.86398438 -23.125 44.625 C-22.10792969 45.63433594 -22.10792969 45.63433594 -21.0703125 46.6640625 C-19.08304518 48.26057348 -19.08304518 48.26057348 -16.70166016 47.7109375 C-13.92190843 46.97945033 -11.36383797 46.04751387 -8.703125 44.9609375 C2.60917192 40.42734284 13.876106 36.20851891 25.625 32.9375 C26.64819336 32.65116699 27.67138672 32.36483398 28.72558594 32.06982422 C34.15285894 30.60613793 39.40373649 29.53835789 45 29 C45 30.32 45 31.64 45 33 C40.05415547 35.02461857 35.10247218 36.99635757 30.0546875 38.75390625 C15.95499465 43.66427401 2.47585621 49.58326362 -11 56 C-10.40251953 56.79664062 -10.40251953 56.79664062 -9.79296875 57.609375 C-7.1953125 61.07291667 -4.59765625 64.53645833 -2 68 C-2.33 68.66 -2.66 69.32 -3 70 C-6 69 -6 69 -7.375 66.3125 C-7.91125 65.219375 -8.4475 64.12625 -9 63 C-9.89115918 61.91601691 -10.8083871 60.85295624 -11.75 59.8125 C-12.4925 58.884375 -13.235 57.95625 -14 57 C-13 54 -13 54 -11.22851562 52.83666992 C-10.46216797 52.47162354 -9.69582031 52.10657715 -8.90625 51.73046875 C-8.04878174 51.31941895 -7.19131348 50.90836914 -6.30786133 50.48486328 C-5.38126709 50.0567334 -4.45467285 49.62860352 -3.5 49.1875 C-2.55471436 48.74390137 -1.60942871 48.30030273 -0.63549805 47.84326172 C6.54883003 44.53094776 13.81617105 41.74075656 21.31640625 39.2421875 C24.47472906 38.17713272 27.54477968 37.01914341 30.625 35.75 C34.36909536 34.21133067 38.0838711 33.02159884 42 32 C35.92301296 32.37206043 30.64560553 34.00273036 24.90283203 35.99755859 C20.73902142 37.43923083 16.57553298 38.68508632 12.3125 39.8125 C5.26639373 41.76348137 -1.41712906 44.45932084 -8.16088867 47.27075195 C-17.17689578 51.00505028 -17.17689578 51.00505028 -20 51 C-22.1484375 49.296875 -22.1484375 49.296875 -24.375 46.75 C-30.56144357 40.16651602 -37.62304074 35.16689896 -45 30 C-46.05058594 29.2575 -47.10117188 28.515 -48.18359375 27.75 C-50.44881779 26.15631047 -52.7197285 24.572046 -55 23 C-51.89793621 19.64149894 -48.25605206 18.05841488 -44.125 16.25 C-42.94852905 15.73046753 -42.94852905 15.73046753 -41.74829102 15.20043945 C-33.1549192 11.49731634 -24.31376998 8.60657332 -15.40576172 5.76708984 C-12.97799569 4.99298381 -10.55153133 4.21584297 -8.12890625 3.42578125 C-7.08005249 3.086073 -7.08005249 3.086073 -6.01000977 2.73950195 C-3.91586072 1.96904435 -1.97601414 1.03328784 0 0 Z " fill="#E4E3E3" transform="translate(174,0)"/>
<path d="M0 0 C4.18043087 1.30312201 8.3569425 2.618002 12.53051758 3.94287109 C13.94426225 4.38995684 15.35894903 4.83407677 16.7746582 5.27490234 C26.23540119 8.22361812 35.07118295 11.66636873 44 16 C45.34970069 16.59359346 46.70309067 17.17899087 48.0625 17.75 C50.42808391 18.75663145 52.72039314 19.81460443 55 21 C53.63111494 25.10665519 50.90617469 26.0091859 47.3125 28 C41.72996134 31.21412781 36.53936584 34.67302016 31.5 38.6875 C30.91589355 39.1525293 30.33178711 39.61755859 29.72998047 40.09667969 C26.69558675 42.54622483 23.79075273 45.09394833 20.9375 47.75 C18 50 18 50 15.90234375 49.875 C11.69405125 48.60628194 7.6833679 46.93064537 3.625 45.25 C-7.62769911 40.68126559 -18.90698752 36.69016583 -30.6875 33.6875 C-31.35942383 33.51573242 -32.03134766 33.34396484 -32.72363281 33.16699219 C-35.95868678 32.37598103 -38.63886341 32 -42 32 C-41.30519531 32.20753906 -40.61039063 32.41507813 -39.89453125 32.62890625 C-36.99169686 33.50821857 -34.09439485 34.40372104 -31.20019531 35.31103516 C-29.6614204 35.79288411 -28.12161786 36.27145803 -26.58105469 36.74755859 C-12.5431411 41.11330148 0.43606646 46.29031351 13 54 C10.88848762 57.72187467 8.50958394 60.92134908 5.75 64.1875 C1.53117027 69.26942911 -2.30763492 74.52675143 -6 80 C-6.33 79.34 -6.66 78.68 -7 78 C-1.23284982 69.79835609 4.61554824 61.73981023 11 54 C10.23171875 53.76410156 9.4634375 53.52820312 8.671875 53.28515625 C4.7838288 51.92434008 1.04047586 50.34600605 -2.74414062 48.72412109 C-16.60473109 42.79126601 -30.69876785 37.75895432 -45 33 C-45 31.68 -45 30.36 -45 29 C-38.8002088 29.58546736 -32.91028124 30.53888129 -26.875 32.0625 C-26.02969727 32.27511475 -25.18439453 32.48772949 -24.31347656 32.70678711 C-17.3538451 34.52275652 -10.54614903 36.71217883 -3.75 39.0625 C-2.32276611 39.55472046 -2.32276611 39.55472046 -0.86669922 40.05688477 C3.39944378 41.5704703 7.4319736 43.16351518 11.421875 45.30859375 C14.65761238 47.23024283 14.65761238 47.23024283 17.05444336 46.74023438 C20.16339031 45.55735984 22.3786222 43.26194384 24.8125 41.0625 C30.79024851 35.81737383 37.10972314 31.39917492 43.78515625 27.09375 C46.27369279 25.47302633 48.65837413 23.82191339 51 22 C41.9480524 17.42251105 32.73318947 13.67403564 23.1875 10.25 C22.13892822 9.87367432 21.09035645 9.49734863 20.01000977 9.10961914 C14.33885885 7.10311087 8.68840626 5.28409341 2.85668945 3.79980469 C1.93762817 3.40390137 1.93762817 3.40390137 1 3 C0.505 1.515 0.505 1.515 0 0 Z " fill="#EBEAEA" transform="translate(50,0)"/>
<path d="M0 0 C5.4263084 0.40998775 8.45304368 5.35756599 11.80078125 9.16015625 C21.84690627 20.99922464 30.55934183 33.98893937 39 47 C39 45.35 39 43.7 39 42 C42.50778211 46.20933853 46 51.4255442 46 57 C42.99904867 56.69620615 42.10804375 56.12802627 40.12817383 53.78198242 C39.49419678 52.81623291 38.86021973 51.8504834 38.20703125 50.85546875 C37.49353516 49.78490234 36.78003906 48.71433594 36.04492188 47.61132812 C35.30015499 46.47046067 34.55601601 45.32918306 33.8125 44.1875 C26.74037432 33.46811453 19.45030033 23.02085115 11.25 13.125 C10.14591797 11.78888672 10.14591797 11.78888672 9.01953125 10.42578125 C8.35308594 9.62527344 7.68664062 8.82476562 7 8 C6.17048828 7.00033203 6.17048828 7.00033203 5.32421875 5.98046875 C4.21908577 4.65119612 3.11018336 3.32505756 2 2 C-3.0733796 5.84907446 -6.72039054 10.28738041 -10.63867188 15.27197266 C-11.57728508 16.4634189 -12.52165898 17.65034179 -13.47070312 18.83349609 C-22.98845772 30.71264049 -32.17252491 43.34504982 -39 57 C-40.32 57 -41.64 57 -43 57 C-42.41584531 53.38606692 -41.44519602 50.57523816 -39.71484375 47.35546875 C-39.26689453 46.51435547 -38.81894531 45.67324219 -38.35742188 44.80664062 C-37.88884766 43.94232422 -37.42027344 43.07800781 -36.9375 42.1875 C-36.46505859 41.30384766 -35.99261719 40.42019531 -35.50585938 39.50976562 C-34.34296716 37.33668422 -33.17421625 35.16697716 -32 33 C-31.34 34.32 -30.68 35.64 -30 37 C-29.3709375 36.10539062 -28.741875 35.21078125 -28.09375 34.2890625 C-19.52905806 22.16346561 -10.51785192 10.51785192 0 0 Z " fill="#D9D9D9" transform="translate(108,91)"/>
<path d="M0 0 C4.32188097 1.49169399 7.82868108 3.7730156 11.5 6.4375 C12.10585937 6.87344482 12.71171875 7.30938965 13.3359375 7.75854492 C18.79366078 11.74214507 23.95735352 16.03483918 29.0625 20.45703125 C32.0118079 23.010222 34.99677996 25.51072387 38 28 C36.49588432 31.52827135 34.43787502 33.72737436 31.75 36.4375 C25.91946154 42.69362521 21.37033988 49.65730269 16.73535156 56.82592773 C16.16397461 57.70837158 15.59259766 58.59081543 15.00390625 59.5 C14.49674072 60.2940625 13.9895752 61.088125 13.46704102 61.90625 C12.11543575 63.83525096 10.72156494 65.40110657 9 67 C10.4455099 61.67226352 12.92359768 57.75963515 16.0625 53.3125 C16.54912109 52.61350586 17.03574219 51.91451172 17.53710938 51.19433594 C21.18376635 46.01437143 25.03631184 41.07466025 29.125 36.234375 C30.82798845 34.20498043 32.43287671 32.13520548 34 30 C30.3527201 21.44512359 20.53576495 15.7863925 13.1875 10.5625 C12.45845459 10.04236328 11.72940918 9.52222656 10.97827148 8.98632812 C7.43149842 6.50950167 4.15006494 4.36161266 0 3 C-13.83654259 17.44877899 -25.11333686 33.78403808 -35.359375 50.92578125 C-35.72321289 51.53139893 -36.08705078 52.1370166 -36.46191406 52.76098633 C-37.43245811 54.38685304 -38.38865643 56.0212593 -39.34375 57.65625 C-41 60 -41 60 -44 61 C-43.55860007 54.42404183 -41.05770928 49.43058095 -38.0625 43.625 C-37.60681641 42.71105469 -37.15113281 41.79710937 -36.68164062 40.85546875 C-33.27197922 34.13598961 -33.27197922 34.13598961 -31 33 C-32.33333333 37 -33.66666667 41 -35 45 C-34.41734375 44.1028125 -33.8346875 43.205625 -33.234375 42.28125 C-23.32287705 27.14216008 -12.82240545 12.82240545 0 0 Z " fill="#D8D7D8" transform="translate(68,57)"/>
<path d="M0 0 C2.43357899 1.46873649 4.77886914 2.9655785 7.125 4.5625 C7.79297607 5.01359131 8.46095215 5.46468262 9.14916992 5.92944336 C18.28068906 12.1612294 27.26924205 19.071861 35 27 C35 27.66 35 28.32 35 29 C33.47632813 29.81791016 33.47632813 29.81791016 31.921875 30.65234375 C18.79696311 37.80003274 7.4742675 46.44563946 -4 56 C-7.58711703 54.47321792 -9.90246546 52.32696443 -12.6875 49.625 C-17.45423564 45.21111827 -22.43685087 41.36031184 -27.75 37.625 C-28.45858154 37.12564941 -29.16716309 36.62629883 -29.8972168 36.11181641 C-34.14813273 33.16317545 -38.47150258 30.50134281 -43 28 C-41.67432909 24.02298727 -39.08886957 22.39949903 -35.875 19.9375 C-35.25407471 19.45651855 -34.63314941 18.97553711 -33.9934082 18.47998047 C-6.94347505 -2.20785174 -6.94347505 -2.20785174 0 0 Z M-11.8125 5.375 C-12.57280518 5.82254639 -13.33311035 6.27009277 -14.11645508 6.73120117 C-23.42597568 12.31847504 -31.68719187 19.04187171 -40 26 C-36.97101204 29.24690077 -33.76093766 31.61668523 -30.0625 34.0625 C-25.12473271 37.39469651 -20.47371446 40.95135229 -15.9375 44.8125 C-15.4019751 45.26826416 -14.8664502 45.72402832 -14.31469727 46.19360352 C-11.42385318 48.68688194 -8.66067342 51.26276044 -6 54 C-1.79920782 52.25922508 1.36116705 49.31807334 4.8125 46.4375 C12.11636131 40.45512634 19.80521228 35.6502952 28 31 C29.6696058 30.00491495 31.33749934 29.00691078 33 28 C22.70157608 17.35829528 11.25250815 7.77350417 -2 1 C-5.6445179 1 -8.73343916 3.56015392 -11.8125 5.375 Z " fill="#E7E7E7" transform="translate(115,26)"/>
<path d="M0 0 C9.72013924 4.61706614 16.88830941 17.23147201 23.1015625 25.7265625 C23.50713379 26.27868408 23.91270508 26.83080566 24.33056641 27.3996582 C25.43650939 28.91311462 26.53111255 30.43483861 27.625 31.95703125 C29.37841841 34.43736237 29.37841841 34.43736237 32.5 35.1875 C32.83 34.1975 33.16 33.2075 33.5 32.1875 C34.93930464 34.72815934 36.37648839 37.26998022 37.8125 39.8125 C38.21662109 40.52535156 38.62074219 41.23820312 39.03710938 41.97265625 C45.93952582 54.20620735 45.93952582 54.20620735 45.5 59.1875 C40.91611283 57.7081546 39.27729164 53.98688936 37 50.0625 C31.72728508 41.31262727 25.75746563 33.25082507 19.5 25.1875 C19.01321777 24.55505371 18.52643555 23.92260742 18.02490234 23.27099609 C12.43272182 16.00737286 6.72348965 8.92812776 0.5 2.1875 C-9.71021539 7.5789677 -19.37353712 13.44196574 -28.5625 20.4375 C-29.12308105 20.86192383 -29.68366211 21.28634766 -30.26123047 21.72363281 C-32.8749555 23.74928982 -34.64615574 25.4067336 -36.5 28.1875 C-34.19 30.8275 -31.88 33.4675 -29.5 36.1875 C-29.83 36.8475 -30.16 37.5075 -30.5 38.1875 C-33.47 34.8875 -36.44 31.5875 -39.5 28.1875 C-38.17430081 24.21040244 -35.58879937 22.58717457 -32.375 20.125 C-31.7555249 19.64474365 -31.1360498 19.1644873 -30.49780273 18.66967773 C-6.76444245 0.50733318 -6.76444245 0.50733318 0 0 Z " fill="#DCDCDC" transform="translate(153.5,58.8125)"/>
<path d="M0 0 C3.45403304 1.68009886 6.55369058 3.64557575 9.64453125 5.90625 C10.24410645 6.33856934 10.84368164 6.77088867 11.46142578 7.21630859 C17.73909708 11.83822137 23.41205772 17.06667843 29.01953125 22.46875 C28.8828125 24.26953125 28.8828125 24.26953125 28.01953125 26.46875 C25.5 28.07421875 25.5 28.07421875 22.20703125 29.65625 C12.9144206 34.40467193 4.91963815 40.66588017 -2.98046875 47.46875 C-5.87094542 46.17791747 -7.66245732 44.90713954 -9.73046875 42.53125 C-13.47736039 38.64497727 -17.73028946 35.68985871 -22.16796875 32.65625 C-22.86954102 32.17615479 -23.57111328 31.69605957 -24.29394531 31.20141602 C-27.45268422 29.07104225 -30.54190133 27.12337405 -33.98046875 25.46875 C-34.45703125 23.36328125 -34.45703125 23.36328125 -33.98046875 20.46875 C-31.72634602 17.99339823 -29.061818 16.11136447 -26.35546875 14.15625 C-25.58871826 13.590271 -24.82196777 13.02429199 -24.03198242 12.44116211 C-5.54624291 -0.98858327 -5.54624291 -0.98858327 0 0 Z M-9.29296875 4.84375 C-9.91018799 5.19518066 -10.52740723 5.54661133 -11.16333008 5.90869141 C-16.91979335 9.27657767 -22.13453379 13.20772235 -27.3359375 17.3671875 C-29.98046875 19.46875 -29.98046875 19.46875 -32.98046875 21.46875 C-31.71160551 25.27533972 -30.44552087 25.64716944 -27.04296875 27.65625 C-18.85977751 32.693695 -11.59729487 38.50366988 -4.98046875 45.46875 C-1.72127818 44.00543995 0.73619658 42.14705355 3.45703125 39.84375 C9.30435192 35.08087307 15.53803525 31.29988328 22.01953125 27.46875 C23.68659587 26.46941356 25.35340831 25.46965565 27.01953125 24.46875 C23.72527729 16.09904663 12.73026236 10.08180746 5.39453125 5.34375 C4.79092773 4.95356689 4.18732422 4.56338379 3.56542969 4.16137695 C-2.02190607 0.64735439 -3.84521122 1.7338817 -9.29296875 4.84375 Z " fill="#F3F8E9" transform="translate(113.98046875,29.53125)"/>
<path d="M0 0 C6.53221637 -0.2896432 12.13320196 0.70464441 18.4375 2.375 C19.91476563 2.75797241 19.91476563 2.75797241 21.421875 3.14868164 C30.48059549 5.62060136 39.08050667 9.04139014 47.66186523 12.83544922 C54.71911544 15.8654924 58.7871174 16.55376116 66.15625 13.8359375 C67.2596875 13.35382812 68.363125 12.87171875 69.5 12.375 C76.1854351 9.5613613 82.99592722 7.34508885 89.9375 5.25 C90.90816406 4.95657715 91.87882812 4.6631543 92.87890625 4.36083984 C108.5520246 -0.31033231 108.5520246 -0.31033231 116 0 C113.22737563 1.48917647 110.64391476 2.45327683 107.5859375 3.18359375 C106.74708008 3.38742676 105.90822266 3.59125977 105.04394531 3.80126953 C103.72281738 4.11620361 103.72281738 4.11620361 102.375 4.4375 C91.47953673 7.1000131 80.81128689 9.90818718 70.56640625 14.55859375 C69.94926758 14.83598389 69.33212891 15.11337402 68.69628906 15.39916992 C66.88228204 16.21848232 65.07572916 17.05423788 63.26953125 17.890625 C58.11062873 19.64107699 54.62465559 17.96839529 49.6875 16.125 C48.80449219 15.79757812 47.92148438 15.47015625 47.01171875 15.1328125 C44.77451985 14.29132394 42.54065169 13.44096922 40.30859375 12.5859375 C27.20580588 7.67800443 13.78283867 3.46962126 0 1 C0 0.67 0 0.34 0 0 Z " fill="#EAE9E9" transform="translate(54,0)"/>
<path d="M0 0 C6.73516737 0.59609314 13.02788945 1.85094023 19.5625 3.5625 C20.47580078 3.79646484 21.38910156 4.03042969 22.33007812 4.27148438 C24.55484564 4.84223625 26.77802897 5.41847478 29 6 C29 6.66 29 7.32 29 8 C28.15236084 7.81824219 28.15236084 7.81824219 27.28759766 7.6328125 C24.73384232 7.0864423 22.17943477 6.5431844 19.625 6 C18.73554688 5.80921875 17.84609375 5.6184375 16.9296875 5.421875 C15.65351563 5.15117188 15.65351563 5.15117188 14.3515625 4.875 C13.56604004 4.70742188 12.78051758 4.53984375 11.97119141 4.3671875 C10.00648675 3.93895771 10.00648675 3.93895771 8 4 C8.70495605 4.25168945 9.40991211 4.50337891 10.13623047 4.76269531 C13.38318241 5.92319476 16.62909358 7.08657961 19.875 8.25 C20.98359375 8.64574219 22.0921875 9.04148437 23.234375 9.44921875 C32.82134733 12.88925 42.19118474 16.32728547 51.125 21.25 C51.7953125 21.61351563 52.465625 21.97703125 53.15625 22.3515625 C54.77349249 23.22949414 56.38715718 24.11401168 58 25 C55.88848762 28.72187467 53.50958394 31.92134908 50.75 35.1875 C46.53117027 40.26942911 42.69236508 45.52675143 39 51 C38.67 50.34 38.34 49.68 38 49 C43.76715018 40.79835609 49.61554824 32.73981023 56 25 C55.23171875 24.76410156 54.4634375 24.52820313 53.671875 24.28515625 C49.7838288 22.92434008 46.04047586 21.34600605 42.25585938 19.72412109 C28.39526891 13.79126601 14.30123215 8.75895432 0 4 C0 2.68 0 1.36 0 0 Z " fill="#E9E9E9" transform="translate(5,29)"/>
<path d="M0 0 C-0.58467041 0.28810547 -1.16934082 0.57621094 -1.77172852 0.87304688 C-15.36041461 7.74555427 -28.36026889 16.03020424 -39 27 C-38.24976562 27.4846875 -37.49953125 27.969375 -36.7265625 28.46875 C-29.82987563 32.98547188 -23.36092484 37.75251261 -17 43 C-15.33515732 44.33561012 -13.66896155 45.66954035 -12 47 C-12.33 47.99 -12.66 48.98 -13 50 C-13.54785156 49.46632812 -14.09570312 48.93265625 -14.66015625 48.3828125 C-23.24501266 40.31444339 -32.87548962 33.97828232 -43 28 C-41.67432909 24.02298727 -39.08886957 22.39949903 -35.875 19.9375 C-35.25407471 19.45651855 -34.63314941 18.97553711 -33.9934082 18.47998047 C-6.75543033 -2.35166865 -6.75543033 -2.35166865 0 0 Z " fill="#DADADA" transform="translate(115,26)"/>
<path d="M0 0 C0.33 0.99 0.66 1.98 1 3 C-0.63104566 5.4065617 -2.30300649 7.61919851 -4.125 9.875 C-11.9137104 19.84501816 -19.33052095 30.6610419 -25 42 C-26.32 42 -27.64 42 -29 42 C-28.41584531 38.38606692 -27.44519602 35.57523816 -25.71484375 32.35546875 C-25.26689453 31.51435547 -24.81894531 30.67324219 -24.35742188 29.80664062 C-23.88884766 28.94232422 -23.42027344 28.07800781 -22.9375 27.1875 C-22.46505859 26.30384766 -21.99261719 25.42019531 -21.50585938 24.50976562 C-20.34296716 22.33668422 -19.17421625 20.16697716 -18 18 C-17.34 19.32 -16.68 20.64 -16 22 C-15.34773438 21.0821875 -14.69546875 20.164375 -14.0234375 19.21875 C-9.42241257 12.75477659 -4.80140079 6.31763262 0 0 Z " fill="#D8D8D8" transform="translate(94,106)"/>
<path d="M0 0 C3.81202452 3.49441347 5.80507355 7.84804988 8.1875 12.375 C8.65091797 13.22578125 9.11433594 14.0765625 9.59179688 14.953125 C10.02943359 15.78070313 10.46707031 16.60828125 10.91796875 17.4609375 C11.51774536 18.58701416 11.51774536 18.58701416 12.12963867 19.73583984 C13.11499388 22.29914536 13.15988782 24.27680745 13 27 C9.81568118 25.65406818 8.30853237 24.43270462 6.52734375 21.48046875 C6.10259766 20.78759766 5.67785156 20.09472656 5.24023438 19.38085938 C4.81033203 18.65705078 4.38042969 17.93324219 3.9375 17.1875 C3.50373047 16.47529297 3.06996094 15.76308594 2.62304688 15.02929688 C1.40516689 13.02544869 0.20043896 11.01433135 -1 9 C-1.59683594 8.00613281 -2.19367188 7.01226562 -2.80859375 5.98828125 C-3.20175781 5.33214844 -3.59492188 4.67601563 -4 4 C-2.68 3.67 -1.36 3.34 0 3 C0 2.01 0 1.02 0 0 Z " fill="#E1E1E1" transform="translate(186,91)"/>
<path d="M0 0 C4.52348496 0.52636916 7.05808757 2.23107606 10.625 5 C11.14280029 5.39936768 11.66060059 5.79873535 12.1940918 6.21020508 C19.97828667 12.25091063 27.55485268 18.54753899 35 25 C33.49588432 28.52827135 31.43787502 30.72737436 28.75 33.4375 C22.91946154 39.69362521 18.37033988 46.65730269 13.73535156 53.82592773 C13.16397461 54.70837158 12.59259766 55.59081543 12.00390625 56.5 C11.49674072 57.2940625 10.9895752 58.088125 10.46704102 58.90625 C9.11543575 60.83525096 7.72156494 62.40110657 6 64 C7.4455099 58.67226352 9.92359768 54.75963515 13.0625 50.3125 C13.54912109 49.61350586 14.03574219 48.91451172 14.53710938 48.19433594 C18.18376635 43.01437143 22.03631184 38.07466025 26.125 33.234375 C27.82798845 31.20498043 29.43287671 29.13520548 31 27 C26.49775068 16.43975029 12.75420006 9.40643007 3.62890625 3.18579102 C2 2 2 2 0 0 Z " fill="#E4E4E4" transform="translate(71,60)"/>
<path d="M0 0 C9.6243972 1.1219698 20.6342822 12.02039747 27 19 C27.76953125 21.26171875 27.76953125 21.26171875 28 23 C27.12859375 23.47308594 26.2571875 23.94617188 25.359375 24.43359375 C17.92648021 28.53837369 11.17197841 32.90511861 4.5234375 38.21484375 C2.21780214 39.84592015 0.75470708 40.59261374 -2 41 C5.11443112 33.14959325 14.62170253 26.84514781 24 22 C24.66 22 25.32 22 26 22 C22.33143456 17.22593596 18.46692625 13.83694794 13.5625 10.375 C12.59860352 9.67890625 12.59860352 9.67890625 11.61523438 8.96875 C8.62664153 6.82060408 5.61181233 4.73459048 2.52734375 2.7265625 C1.69332031 2.15679687 0.85929687 1.58703125 0 1 C0 0.67 0 0.34 0 0 Z " fill="#EBF4DB" transform="translate(115,32)"/>
<path d="M0 0 C-0.52207031 0.17015625 -1.04414063 0.3403125 -1.58203125 0.515625 C-7.76883198 2.55261018 -13.88325652 4.76293013 -20 7 C-22.51953451 7.920498 -25.04007367 8.83752954 -27.5625 9.75 C-28.73941406 10.17796875 -29.91632813 10.6059375 -31.12890625 11.046875 C-34 12 -34 12 -36 12 C-36 11.34 -36 10.68 -36 10 C-36.66 9.34 -37.32 8.68 -38 8 C-31.57349007 6.23210932 -25.143754 4.47655896 -18.70996094 2.73535156 C-17.08738002 2.29506204 -15.46541304 1.85248597 -13.84472656 1.40527344 C-12.19055982 0.9488606 -10.5329692 0.50490076 -8.875 0.0625 C-8.00617188 -0.17339844 -7.13734375 -0.40929688 -6.2421875 -0.65234375 C-3.83420049 -1.02570759 -2.29362996 -0.76630494 0 0 Z " fill="#4B4849" transform="translate(174,1)"/>
<path d="M0 0 C5.9860442 1.06893646 11.51019734 2.80720698 17.1875 4.9375 C18.20263672 5.31672607 18.20263672 5.31672607 19.23828125 5.70361328 C22.3793041 6.90382275 25.27095372 8.14675298 28.23828125 9.75390625 C30.8013145 11.14502543 30.8013145 11.14502543 33.015625 10.97265625 C35.95766909 9.53059133 38.25227352 7.54867357 40.75 5.4375 C41.73484375 4.61121094 42.7196875 3.78492188 43.734375 2.93359375 C44.48203125 2.29550781 45.2296875 1.65742187 46 1 C46.66 1.33 47.32 1.66 48 2 C46.41856529 3.43958847 44.83477221 4.87658645 43.25 6.3125 C42.36828125 7.11300781 41.4865625 7.91351563 40.578125 8.73828125 C39.72734375 9.48464844 38.8765625 10.23101562 38 11 C37.33484375 11.61230469 36.6696875 12.22460938 35.984375 12.85546875 C33.26516453 14.42383227 31.99573053 13.76377932 29 13 C27.47053528 12.46931208 25.95439805 11.89883279 24.453125 11.29296875 C23.6075 10.95330078 22.761875 10.61363281 21.890625 10.26367188 C21.01921875 9.90853516 20.1478125 9.55339844 19.25 9.1875 C18.3940625 8.84396484 17.538125 8.50042969 16.65625 8.14648438 C11.04943605 5.88252086 5.50877418 3.49266178 0 1 C0 0.67 0 0.34 0 0 Z " fill="#E1E1E1" transform="translate(34,36)"/>
<path d="M0 0 C6.63332765 -0.31105874 12.29472167 0.77861635 18.6875 2.5 C20.1737085 2.89505737 20.1737085 2.89505737 21.68994141 3.2980957 C28.87353719 5.27253098 35.89674598 7.58102553 42.875 10.1875 C43.77822998 10.52007812 44.68145996 10.85265625 45.61206055 11.1953125 C46.43875244 11.51628906 47.26544434 11.83726563 48.1171875 12.16796875 C48.84534668 12.44922607 49.57350586 12.7304834 50.32373047 13.02026367 C52 14 52 14 53 17 C51.66598223 16.56459142 50.33283226 16.12652414 49 15.6875 C48.2575 15.44386719 47.515 15.20023438 46.75 14.94921875 C44.60375581 14.20839867 42.47392995 13.41996267 40.3515625 12.61328125 C27.24616613 7.67343688 13.79542758 3.47187696 0 1 C0 0.67 0 0.34 0 0 Z " fill="#DBDBDB" transform="translate(54,0)"/>
<path d="M0 0 C0 0.66 0 1.32 0 2 C-0.73637695 2.31751221 -1.47275391 2.63502441 -2.23144531 2.9621582 C-5.57336347 4.40679217 -8.91169056 5.85954754 -12.25 7.3125 C-13.40886719 7.81201172 -14.56773437 8.31152344 -15.76171875 8.82617188 C-17.43427734 9.55610352 -17.43427734 9.55610352 -19.140625 10.30078125 C-20.16704102 10.74591064 -21.19345703 11.19104004 -22.25097656 11.6496582 C-25.33959876 13.06113081 -25.33959876 13.06113081 -29 16 C-26.03 19.63 -23.06 23.26 -20 27 C-20.33 27.66 -20.66 28.32 -21 29 C-24 28 -24 28 -25.375 25.3125 C-25.91125 24.219375 -26.4475 23.12625 -27 22 C-27.89115918 20.91601691 -28.8083871 19.85295624 -29.75 18.8125 C-30.86375 17.4203125 -30.86375 17.4203125 -32 16 C-31 13 -31 13 -29.08569336 11.7890625 C-28.26206299 11.40492187 -27.43843262 11.02078125 -26.58984375 10.625 C-25.68169922 10.19703125 -24.77355469 9.7690625 -23.83789062 9.328125 C-22.88076172 8.88984375 -21.92363281 8.4515625 -20.9375 8 C-20.00744141 7.56171875 -19.07738281 7.1234375 -18.11914062 6.671875 C-3.8208302 0 -3.8208302 0 0 0 Z " fill="#DAD9DA" transform="translate(192,41)"/>
<path d="M0 0 C0.66 0.66 1.32 1.32 2 2 C1.6911784 6.01468077 0.24810853 8.44311905 -2.125 11.625 C-5.99106084 16.93983312 -9.51577648 22.42947851 -13 28 C-13.33 27.34 -13.66 26.68 -14 26 C-13.16476973 23.92368814 -12.23027588 21.88689954 -11.25 19.875 C-9.44649685 16.11873826 -7.73468752 12.45983557 -6.4375 8.5 C-4.79630221 4.50404017 -3.21576752 2.78120434 0 0 Z " fill="#535152" transform="translate(44,79)"/>
<path d="M0 0 C6.66894968 0.60257515 12.95248128 1.78860347 19.4375 3.4375 C20.33404297 3.65470703 21.23058594 3.87191406 22.15429688 4.09570312 C23.00958984 4.31033203 23.86488281 4.52496094 24.74609375 4.74609375 C25.51622803 4.93872803 26.2863623 5.1313623 27.07983398 5.32983398 C29 6 29 6 31 8 C31 8.99 31 9.98 31 11 C24.01805516 9.02124605 17.20689199 6.68275695 10.39453125 4.18359375 C6.95196663 2.98325188 3.51333379 1.96873371 0 1 C0 0.67 0 0.34 0 0 Z " fill="#5A5859" transform="translate(6,31)"/>
<path d="M0 0 C3.80466482 0.17412654 5.72531901 2.4309668 8.21289062 5.109375 C8.94282227 5.92148438 8.94282227 5.92148438 9.6875 6.75 C10.18572266 7.2759375 10.68394531 7.801875 11.19726562 8.34375 C14.03150099 11.45102567 15.66244305 13.76091269 16 18 C12.46808678 14.56846086 9.2862495 11.02624938 6.1875 7.1875 C5.39730469 6.21167969 4.60710937 5.23585938 3.79296875 4.23046875 C3.20128906 3.49441406 2.60960938 2.75835937 2 2 C-1.86779381 4.88538792 -4.80698215 7.98188807 -7.8125 11.75 C-8.60269531 12.73484375 -9.39289063 13.7196875 -10.20703125 14.734375 C-10.79871094 15.48203125 -11.39039062 16.2296875 -12 17 C-12.33 16.01 -12.66 15.02 -13 14 C-11.02108364 11.85393535 -9.04187901 9.70813786 -7.0625 7.5625 C-6.49853516 6.95083984 -5.93457031 6.33917969 -5.35351562 5.70898438 C-4.81533203 5.12568359 -4.27714844 4.54238281 -3.72265625 3.94140625 C-3.22515869 3.40201416 -2.72766113 2.86262207 -2.21508789 2.30688477 C-1.48918929 1.52614632 -0.75381738 0.75381738 0 0 Z " fill="#DCDBDB" transform="translate(108,91)"/>
<path d="M0 0 C-2.74500564 2.74500564 -5.93089105 3.36523615 -9.5625 4.4375 C-11.01191218 4.87696671 -12.46113221 5.31706769 -13.91015625 5.7578125 C-14.61156738 5.96954102 -15.31297852 6.18126953 -16.03564453 6.39941406 C-19.71591884 7.52462843 -23.3559253 8.76361751 -27 10 C-27 9.34 -27 8.68 -27 8 C-27.99 7.67 -28.98 7.34 -30 7 C-28.77023438 6.66226563 -27.54046875 6.32453125 -26.2734375 5.9765625 C-24.64060198 5.52612511 -23.00779076 5.07559962 -21.375 4.625 C-20.56675781 4.40328125 -19.75851563 4.1815625 -18.92578125 3.953125 C-15.45526554 2.99379545 -12.03281456 2.01124202 -8.625 0.84375 C-5.63543337 -0.11718213 -3.1207701 -0.1486081 0 0 Z " fill="#5F5D5D" transform="translate(218,31)"/>
<path d="M0 0 C4.48721445 3.81413229 7.03495803 8.67630474 7.75 14.4375 C7.87375 16.2009375 7.87375 16.2009375 8 18 C3.81340142 14.17225273 0.62179138 10.05392126 -2 5 C-2 4.34 -2 3.68 -2 3 C-1.34 3 -0.68 3 0 3 C0 2.01 0 1.02 0 0 Z " fill="#A4A2A3" transform="translate(140,121)"/>
<path d="M0 0 C-1 3 -1 3 -3.21484375 4.16796875 C-4.11332031 4.50441406 -5.01179687 4.84085938 -5.9375 5.1875 C-6.83339844 5.53167969 -7.72929687 5.87585937 -8.65234375 6.23046875 C-11 7 -11 7 -13 7 C-13 6.34 -13 5.68 -13 5 C-15.31 5.33 -17.62 5.66 -20 6 C-14.20731454 2.13820969 -7.04496923 -0.7616183 0 0 Z " fill="#5E5B5C" transform="translate(191,39)"/>
<path d="M0 0 C0.99 0.33 1.98 0.66 3 1 C2.15695313 1.61488281 1.31390625 2.22976562 0.4453125 2.86328125 C-0.66164811 3.67943017 -1.76840851 4.49585067 -2.875 5.3125 C-3.43058594 5.71662109 -3.98617187 6.12074219 -4.55859375 6.53710938 C-7.2804066 8.55387431 -9.10034104 10.15051156 -11 13 C-8.69 15.64 -6.38 18.28 -4 21 C-4.33 21.66 -4.66 22.32 -5 23 C-7.97 19.7 -10.94 16.4 -14 13 C-12.64847897 8.94543692 -9.90386339 7.25154664 -6.625 4.75 C-5.73941406 4.04230469 -5.73941406 4.04230469 -4.8359375 3.3203125 C-3.1015625 1.984375 -3.1015625 1.984375 0 0 Z " fill="#E3E2E2" transform="translate(128,74)"/>
<path d="M0 0 C0.33 0.66 0.66 1.32 1 2 C0.16476973 4.07631186 -0.76972412 6.11310046 -1.75 8.125 C-3.57999319 11.94135994 -5.32239787 15.68074077 -6.6875 19.6875 C-8 23 -8 23 -11 25 C-10.5335341 18.94586817 -7.79473097 14.34426097 -4.9375 9.125 C-4.46505859 8.24585937 -3.99261719 7.36671875 -3.50585938 6.4609375 C-2.34481926 4.30304476 -1.17607732 2.14972292 0 0 Z " fill="#B1B0B0" transform="translate(36,90)"/>
<path d="M0 0 C-0.52207031 0.17015625 -1.04414063 0.3403125 -1.58203125 0.515625 C-7.7682136 2.55240658 -13.88858108 4.74962705 -20 7 C-20.33 6.34 -20.66 5.68 -21 5 C-21.66 4.67 -22.32 4.34 -23 4 C-20.58343624 3.35377959 -18.16675354 2.70800996 -15.75 2.0625 C-15.06808594 1.88009766 -14.38617188 1.69769531 -13.68359375 1.50976562 C-11.78970056 1.00411453 -9.89487972 0.50194154 -8 0 C-6.89398438 -0.34224609 -6.89398438 -0.34224609 -5.765625 -0.69140625 C-3.59863661 -1.0701498 -2.07570952 -0.66719235 0 0 Z " fill="#6B6969" transform="translate(174,1)"/>
<path d="M0 0 C1.18637997 4.34397588 1.06849409 7.04836284 -1.1484375 11.09765625 C-2.37899782 13.1142103 -3.60137909 15.09579653 -5 17 C-5.33 17 -5.66 17 -6 17 C-6.34884724 12.10160332 -5.46792622 9.34104063 -3 5.125 C-2.443125 4.15820312 -1.88625 3.19140625 -1.3125 2.1953125 C-0.879375 1.47085938 -0.44625 0.74640625 0 0 Z " fill="#908F8F" transform="translate(76,124)"/>
<path d="M0 0 C0.66 0 1.32 0 2 0 C0.48792023 4.19151647 -1.5861754 7.78374185 -3.9375 11.5625 C-4.62714844 12.67753906 -5.31679688 13.79257813 -6.02734375 14.94140625 C-9.30894154 20.02950738 -9.30894154 20.02950738 -11 22 C-11.66 22 -12.32 22 -13 22 C-13 20.35 -13 18.7 -13 17 C-12.01 17 -11.02 17 -10 17 C-9.44570313 16.02417969 -8.89140625 15.04835938 -8.3203125 14.04296875 C-7.58859909 12.75777981 -6.85682508 11.47262536 -6.125 10.1875 C-5.76019531 9.54490234 -5.39539063 8.90230469 -5.01953125 8.24023438 C-3.41916099 5.43231202 -1.79357134 2.69035702 0 0 Z " fill="#DFDEDE" transform="translate(37,96)"/>
<path d="M0 0 C6.83984261 1.34554281 13.68718648 2.96769128 20 6 C20.99 7.485 20.99 7.485 22 9 C16.59697629 7.4529303 11.2435681 5.79184579 5.9375 3.9375 C5.01839844 3.61652344 4.09929688 3.29554687 3.15234375 2.96484375 C1 2 1 2 0 0 Z " fill="#D7D6D6" transform="translate(34,36)"/>
<path d="M0 0 C7.10377673 1.01791923 14.07511433 2.09905099 21 4 C20.01 5.485 20.01 5.485 19 7 C12.51292846 5.3186083 6.2322365 3.46937673 0 1 C0 0.67 0 0.34 0 0 Z " fill="#737071" transform="translate(51,0)"/>
<path d="M0 0 C0.99 0.33 1.98 0.66 3 1 C3 1.66 3 2.32 3 3 C3.66 3 4.32 3 5 3 C7.81763407 5.81763407 8.94608803 7.28566635 9.25 11.3125 C9.1675 12.199375 9.085 13.08625 9 14 C6.67489755 11.15820812 4.42299401 8.27173401 2.25 5.3125 C1.82203125 4.73113281 1.3940625 4.14976563 0.953125 3.55078125 C0 2 0 2 0 0 Z " fill="#6B696A" transform="translate(186,97)"/>
<path d="M0 0 C3.68881485 3.53156519 6.77382244 7.18534092 9.8125 11.3125 C10.21919922 11.86228516 10.62589844 12.41207031 11.04492188 12.97851562 C12.03368611 14.31625547 13.01738585 15.65773623 14 17 C13.01 17.33 12.02 17.66 11 18 C9.34648668 15.75530315 7.70214519 13.50479175 6.0625 11.25 C5.59392578 10.61578125 5.12535156 9.9815625 4.64257812 9.328125 C3.9706543 8.4 3.9706543 8.4 3.28515625 7.453125 C2.87144775 6.88754883 2.45773926 6.32197266 2.03149414 5.73925781 C0.90789893 3.84470343 0.4304947 2.15041371 0 0 Z " fill="#D4D3D3" transform="translate(170,77)"/>
<path d="M0 0 C1.98 0.495 1.98 0.495 4 1 C3.34 1.66 2.68 2.32 2 3 C4.97 6.63 7.94 10.26 11 14 C10.67 14.66 10.34 15.32 10 16 C7 15 7 15 5.625 12.3125 C5.08875 11.219375 4.5525 10.12625 4 9 C3.10884082 7.91601691 2.1916129 6.85295624 1.25 5.8125 C0.5075 4.884375 -0.235 3.95625 -1 3 C-0.67 2.01 -0.34 1.02 0 0 Z " fill="#D4D4D4" transform="translate(161,54)"/>
<path d="M0 0 C0.66 0.66 1.32 1.32 2 2 C1.625 4.625 1.625 4.625 1 7 C0.01 7 -0.98 7 -2 7 C-2.99 7.33 -3.98 7.66 -5 8 C-5.33 8.99 -5.66 9.98 -6 11 C-6.33 10.34 -6.66 9.68 -7 9 C-6.07421875 7.08984375 -6.07421875 7.08984375 -4.6875 4.9375 C-4.23761719 4.22464844 -3.78773437 3.51179688 -3.32421875 2.77734375 C-2 1 -2 1 0 0 Z " fill="#908F8F" transform="translate(44,79)"/>
<path d="M0 0 C5.852795 0.51482919 11.3297637 1.45357192 17 3 C17 3.99 17 4.98 17 6 C16.35933594 5.80664062 15.71867187 5.61328125 15.05859375 5.4140625 C10.04889015 3.9059252 5.03460143 2.42282214 0 1 C0 0.67 0 0.34 0 0 Z " fill="#727070" transform="translate(6,31)"/>
<path d="M0 0 C9.79802956 7.07500397 9.79802956 7.07500397 13 11 C12.8125 13.3125 12.8125 13.3125 12 15 C11.34 14.67 10.68 14.34 10 14 C9.88785156 13.40445313 9.77570313 12.80890625 9.66015625 12.1953125 C8.72720576 9.0928381 6.91301592 7.91274863 4.4375 5.875 C2.92407399 4.62364932 1.43561402 3.33990642 0 2 C0 1.34 0 0.68 0 0 Z " fill="#F1F7E6" transform="translate(130,41)"/>
<path d="M0 0 C0.99 0.33 1.98 0.66 3 1 C3 1.66 3 2.32 3 3 C3.66 3 4.32 3 5 3 C6.06652192 5.30368736 7.06421005 7.64018187 8 10 C7.67 10.66 7.34 11.32 7 12 C5.82767315 10.3790787 4.6622923 8.75313167 3.5 7.125 C2.8503125 6.22007812 2.200625 5.31515625 1.53125 4.3828125 C0 2 0 2 0 0 Z " fill="#565354" transform="translate(140,127)"/>
<path d="M0 0 C3.29078593 2.79716804 5.06305458 6.19528578 7 10 C6.67 10.66 6.34 11.32 6 12 C5.67 11.01 5.34 10.02 5 9 C4.34 9 3.68 9 3 9 C2.67 8.34 2.34 7.68 2 7 C-0.01669827 5.86649466 -0.01669827 5.86649466 -2 5 C-2 4.34 -2 3.68 -2 3 C-1.34 3 -0.68 3 0 3 C0 2.01 0 1.02 0 0 Z " fill="#A3A2A2" transform="translate(186,91)"/>
<path d="M0 0 C8.57142857 0.85714286 8.57142857 0.85714286 12 3 C11.67 3.66 11.34 4.32 11 5 C9.53890937 4.74445946 8.08111904 4.46999628 6.625 4.1875 C5.81289062 4.03667969 5.00078125 3.88585937 4.1640625 3.73046875 C2 3 2 3 0 0 Z " fill="#524F50" transform="translate(69,5)"/>
<path d="M0 0 C3.44475962 4.38423952 5.31620235 7.30835767 5 13 C1.7315592 10.1532935 0.43331734 8.33317345 0 4 C0 2.68 0 1.36 0 0 Z " fill="#A5A4A4" transform="translate(147,133)"/>
<path d="M0 0 C0.33 0.66 0.66 1.32 1 2 C1.66 2.33 2.32 2.66 3 3 C1.35 5.64 -0.3 8.28 -2 11 C-2.66 9.68 -3.32 8.36 -4 7 C-3.06434658 4.35435928 -1.54985485 2.37036624 0 0 Z " fill="#565354" transform="translate(80,119)"/>
<path d="M0 0 C0.33 0 0.66 0 1 0 C1.3227506 4.62609198 0.84450614 7.28026121 -2 11 C-2.66 11 -3.32 11 -4 11 C-3.39301257 6.87248551 -1.96189209 3.6678852 0 0 Z " fill="#B7B6B6" transform="translate(69,137)"/>
<path d="M0 0 C0.33 0.99 0.66 1.98 1 3 C0.0390625 4.82421875 0.0390625 4.82421875 -1.375 6.6875 C-1.83648437 7.31011719 -2.29796875 7.93273437 -2.7734375 8.57421875 C-3.17820313 9.04472656 -3.58296875 9.51523438 -4 10 C-4.33 10 -4.66 10 -5 10 C-4.50769231 3.47692308 -4.50769231 3.47692308 -1.9375 1.0625 C-0.9784375 0.5365625 -0.9784375 0.5365625 0 0 Z " fill="#454243" transform="translate(43,84)"/>
<path d="M0 0 C4.29951803 1.59241408 6.39671947 4.35540725 9 8 C8.67 8.99 8.34 9.98 8 11 C6.66375099 9.35653302 5.33107149 7.71016314 4 6.0625 C3.2575 5.14597656 2.515 4.22945313 1.75 3.28515625 C0 1 0 1 0 0 Z " fill="#E0E0E0" transform="translate(161,68)"/>
<path d="M0 0 C-0.33 0.99 -0.66 1.98 -1 3 C-3.64 3.33 -6.28 3.66 -9 4 C-7.04565548 0.09131097 -4.13449517 0 0 0 Z " fill="#403D3E" transform="translate(191,39)"/>
<path d="M0 0 C2.50298434 2.93828597 3.46930939 5.17902761 4 9 C3.01 8.67 2.02 8.34 1 8 C-0.35439668 5.29120665 -0.06501451 2.99066732 0 0 Z " fill="#B3B2B2" transform="translate(195,107)"/>
<path d="M0 0 C3.72433382 1.2125738 7.37802806 2.50859979 11 4 C7.69564916 5.12377697 5.9493138 4.89554742 2.75 3.5625 C2.04359375 3.27503906 1.3371875 2.98757812 0.609375 2.69140625 C0.07828125 2.46324219 -0.4528125 2.23507812 -1 2 C-0.67 1.34 -0.34 0.68 0 0 Z " fill="#DDDCDD" transform="translate(79,10)"/>
<path d="M0 0 C0.99 0.33 1.98 0.66 3 1 C-1.455 4.465 -1.455 4.465 -6 8 C-6 7.01 -6 6.02 -6 5 C-3.1875 2.25 -3.1875 2.25 0 0 Z " fill="#E5E5E5" transform="translate(82,44)"/>
<path d="M0 0 C0.66 0.33 1.32 0.66 2 1 C0.7260411 3.03833424 -0.61061923 5.03852126 -2 7 C-2.66 7 -3.32 7 -4 7 C-4 5.35 -4 3.7 -4 2 C-3.01 2 -2.02 2 -1 2 C-0.67 1.34 -0.34 0.68 0 0 Z " fill="#E8E7E7" transform="translate(28,111)"/>
<path d="M0 0 C5 2 5 2 10 4 C7.83032311 4.95465783 6.43671207 5.14401212 4.17578125 4.3984375 C2.4315257 3.64129615 0.71372869 2.82390802 -1 2 C-0.67 1.34 -0.34 0.68 0 0 Z " fill="#E4E4E4" transform="translate(40,43)"/>
<path d="M0 0 C0.66 0.33 1.32 0.66 2 1 C-0.55068845 3.35448165 -1.71017358 3.98327924 -5.25 4.1875 C-6.1575 4.125625 -7.065 4.06375 -8 4 C-5.31143836 2.20762558 -3.0466145 1.01553817 0 0 Z " fill="#CECECE" transform="translate(148,9)"/>
<path d="M0 0 C2.31 0.33 4.62 0.66 7 1 C5.515 2.485 5.515 2.485 4 4 C2.68 3.34 1.36 2.68 0 2 C0 1.34 0 0.68 0 0 Z " fill="#413E3F" transform="translate(80,8)"/>
</svg>
