<?xml version="1.0" standalone="no"?>
<!DOCTYPE svg PUBLIC "-//W3C//DTD SVG 20010904//EN"
 "http://www.w3.org/TR/2001/REC-SVG-20010904/DTD/svg10.dtd">
<svg version="1.0" xmlns="http://www.w3.org/2000/svg"
 width="236.000000pt" height="153.000000pt" viewBox="0 0 236.000000 153.000000"
 preserveAspectRatio="xMidYMid meet">

<g transform="translate(0.000000,153.000000) scale(0.100000,-0.100000)"
fill="#000000" stroke="none">
<path d="M730 1476 c200 -69 382 -145 395 -165 2 -4 -15 -18 -38 -31 -76 -42
-212 -139 -274 -195 -34 -30 -65 -55 -71 -55 -5 0 -42 15 -83 34 -41 19 -117
48 -169 66 -105 35 -339 94 -346 87 -2 -2 30 -14 71 -26 162 -48 485 -183 485
-202 0 -5 -30 -46 -67 -91 -37 -46 -91 -120 -120 -165 -53 -81 -189 -333 -180
-333 3 0 36 51 75 113 93 148 204 298 285 383 l64 68 69 -44 c71 -46 173 -126
258 -203 l50 -44 -65 -74 c-107 -124 -209 -280 -295 -452 -47 -94 -35 -80 68
78 88 135 217 302 286 368 l39 38 49 -54 c70 -76 188 -232 283 -374 45 -68 84
-123 87 -123 9 0 -92 184 -158 288 -32 52 -87 130 -121 174 -34 44 -71 92 -81
106 l-20 25 30 24 c82 68 179 138 269 192 l99 61 34 -33 c58 -55 223 -266 311
-397 102 -151 113 -164 72 -82 -79 157 -195 333 -333 505 -22 27 -22 29 -5 42
34 24 259 122 392 169 160 57 182 67 135 59 -76 -13 -312 -87 -441 -139 -74
-30 -139 -54 -143 -54 -4 0 -42 32 -84 71 -43 39 -125 103 -184 142 l-107 72
46 24 c65 33 235 100 381 151 67 24 121 44 119 46 -4 4 -254 -60 -337 -87 -36
-12 -111 -39 -167 -61 l-102 -40 -123 50 c-68 27 -163 61 -213 76 -91 26 -260
66 -273 65 -4 0 63 -24 148 -53z m553 -249 c121 -79 287 -217 287 -238 0 -4
-33 -25 -72 -47 -90 -50 -197 -124 -264 -186 -29 -25 -56 -46 -60 -46 -5 0
-47 34 -94 76 -47 41 -130 105 -185 142 -55 36 -102 67 -105 70 -18 13 365
282 403 282 5 0 46 -24 90 -53z"/>
</g>
</svg>
